<?xml version="1.0" encoding="UTF-8"?>
<!DOCTYPE svg PUBLIC "-//W3C//DTD SVG 1.1//EN" "http://www.w3.org/Graphics/SVG/1.1/DTD/svg11.dtd">
<svg xmlns="http://www.w3.org/2000/svg" version="1.1" width="189px" height="38px" style="shape-rendering:geometricPrecision; text-rendering:geometricPrecision; image-rendering:optimizeQuality; fill-rule:evenodd; clip-rule:evenodd" xmlns:xlink="http://www.w3.org/1999/xlink">
<g><path style="opacity:0.772" fill="#abbadd" d="M 26.5,-0.5 C 28.1667,-0.5 29.8333,-0.5 31.5,-0.5C 32.6871,0.533646 33.5204,1.86698 34,3.5C 35.0807,8.46975 35.414,13.4698 35,18.5C 32.6985,19.8672 30.1985,20.5339 27.5,20.5C 26.1667,19.5 26.1667,18.5 27.5,17.5C 29.903,17.305 31.5696,16.1384 32.5,14C 31.9127,10.6138 31.2461,7.28044 30.5,4C 25.8333,3.33333 21.1667,3.33333 16.5,4C 14.5981,5.39377 14.2647,7.22711 15.5,9.5C 15.4326,10.9587 15.7659,12.2921 16.5,13.5C 16.4395,18.791 18.7728,20.4576 23.5,18.5C 24.6857,19.7054 24.6857,21.0387 23.5,22.5C 15.7872,25.4603 12.4539,22.7937 13.5,14.5C 13.5674,13.0413 13.2341,11.7079 12.5,10.5C 11.2588,7.53696 11.2588,4.53696 12.5,1.5C 17.2994,0.882539 21.966,0.215872 26.5,-0.5 Z M 27.5,17.5 C 26.8796,14.6596 26.2129,11.8263 25.5,9C 22.1322,8.45721 18.7989,8.62388 15.5,9.5C 14.2647,7.22711 14.5981,5.39377 16.5,4C 21.1667,3.33333 25.8333,3.33333 30.5,4C 31.2461,7.28044 31.9127,10.6138 32.5,14C 31.5696,16.1384 29.903,17.305 27.5,17.5 Z M 23.5,18.5 C 18.7728,20.4576 16.4395,18.791 16.5,13.5C 21.8335,11.0741 24.1668,12.7407 23.5,18.5 Z"/></g>
<g><path style="opacity:0.598" fill="#798db5" d="M 42.5,-0.5 C 45.1667,-0.5 47.8333,-0.5 50.5,-0.5C 52.1927,2.96203 53.1927,2.96203 53.5,-0.5C 55.1667,-0.5 56.8333,-0.5 58.5,-0.5C 58.3367,1.85684 58.5034,4.19018 59,6.5C 58.9532,1.86391 60.9532,0.530582 65,2.5C 65.6979,1.30943 66.5313,0.309426 67.5,-0.5C 68.8333,-0.5 70.1667,-0.5 71.5,-0.5C 72.9575,1.01079 74.7908,2.01079 77,2.5C 85.0834,1.36943 93.2501,1.20276 101.5,2C 102.769,4.13853 102.769,6.30519 101.5,8.5C 97.6783,10.1966 95.845,8.86331 96,4.5C 95.51,5.79323 95.3433,7.12656 95.5,8.5C 92.1633,8.67731 89.1633,9.67731 86.5,11.5C 85.6897,9.20173 84.8564,6.8684 84,4.5C 83.0914,9.72979 81.9247,9.72979 80.5,4.5C 79.5713,5.68884 79.238,7.02218 79.5,8.5C 70.2518,7.66333 60.9185,7.66333 51.5,8.5C 51.1667,3.16667 50.8333,3.16667 50.5,8.5C 41.7094,10.7147 39.0427,7.71467 42.5,-0.5 Z M 44.5,1.5 C 48.5683,3.96872 48.235,5.63539 43.5,6.5C 43.366,4.70848 43.6993,3.04181 44.5,1.5 Z M 67.5,2.5 C 68.8333,2.5 70.1667,2.5 71.5,2.5C 71.7778,4.34642 71.1112,5.67975 69.5,6.5C 67.8888,5.67975 67.2222,4.34642 67.5,2.5 Z M 73.5,4.5 C 75.337,4.63945 75.6704,5.30612 74.5,6.5C 73.7025,6.04311 73.3691,5.37644 73.5,4.5 Z"/></g>
<g><path style="opacity:0.809" fill="#0161a9" d="M 27.5,17.5 C 26.1667,18.5 26.1667,19.5 27.5,20.5C 27.5505,24.1881 27.8838,27.8548 28.5,31.5C 28.6369,33.8405 27.9702,35.8405 26.5,37.5C 18.1667,37.5 9.83333,37.5 1.5,37.5C 0.989877,34.0172 0.32321,30.6838 -0.5,27.5C -0.5,23.1667 -0.5,18.8333 -0.5,14.5C 3.66626,12.7071 7.99959,11.3738 12.5,10.5C 13.2341,11.7079 13.5674,13.0413 13.5,14.5C 9.61164,14.3452 6.11164,15.3452 3,17.5C 3.04671,22.5105 3.54671,27.5105 4.5,32.5C 10.8585,33.7935 17.1919,33.7935 23.5,32.5C 24.8056,29.0202 24.8056,25.6868 23.5,22.5C 24.6857,21.0387 24.6857,19.7054 23.5,18.5C 24.1668,12.7407 21.8335,11.0741 16.5,13.5C 15.7659,12.2921 15.4326,10.9587 15.5,9.5C 18.7989,8.62388 22.1322,8.45721 25.5,9C 26.2129,11.8263 26.8796,14.6596 27.5,17.5 Z M 23.5,18.5 C 18.7728,20.4576 16.4395,18.791 16.5,13.5C 21.8335,11.0741 24.1668,12.7407 23.5,18.5 Z M 13.5,14.5 C 12.4539,22.7937 15.7872,25.4603 23.5,22.5C 24.8056,25.6868 24.8056,29.0202 23.5,32.5C 17.1919,33.7935 10.8585,33.7935 4.5,32.5C 3.54671,27.5105 3.04671,22.5105 3,17.5C 6.11164,15.3452 9.61164,14.3452 13.5,14.5 Z"/></g>
<g><path style="opacity:0.628" fill="#0060a9" d="M 41.5,11.5 C 42.675,11.281 43.675,11.6143 44.5,12.5C 45.5686,15.5394 46.7353,18.5394 48,21.5C 49.1503,18.2321 49.9836,14.8988 50.5,11.5C 51.8333,11.5 53.1667,11.5 54.5,11.5C 54.8266,16.2137 54.4933,20.8804 53.5,25.5C 52.7621,13.6693 51.4288,13.6693 49.5,25.5C 48.1667,25.5 46.8333,25.5 45.5,25.5C 44.6429,17.2357 43.8096,16.9023 43,24.5C 41.6575,25.9023 40.8242,25.5689 40.5,23.5C 41.3619,19.5474 41.6952,15.5474 41.5,11.5 Z"/></g>
<g><path style="opacity:0.553" fill="#0060a9" d="M 97.5,11.5 C 98.5,11.5 99.5,11.5 100.5,11.5C 100.5,16.1667 100.5,20.8333 100.5,25.5C 93.1088,27.7174 90.2755,25.0507 92,17.5C 93.4443,15.8446 95.2776,15.178 97.5,15.5C 97.5,14.1667 97.5,12.8333 97.5,11.5 Z M 94.5,17.5 C 95.5,17.5 96.5,17.5 97.5,17.5C 97.6621,19.5273 97.4955,21.5273 97,23.5C 94.7103,24.41 93.5437,23.41 93.5,20.5C 93.685,19.4163 94.0183,18.4163 94.5,17.5 Z"/></g>
<g><path style="opacity:0.665" fill="#0060a9" d="M 112.5,11.5 C 117.02,10.7604 120.02,12.4271 121.5,16.5C 120.531,19.9869 118.198,21.3202 114.5,20.5C 114.785,22.288 114.452,23.9547 113.5,25.5C 112.507,20.8804 112.173,16.2137 112.5,11.5 Z M 114.5,13.5 C 121.095,15.2309 121.095,16.8975 114.5,18.5C 114.5,16.8333 114.5,15.1667 114.5,13.5 Z"/></g>
<g><path style="opacity:0.438" fill="#0060a9" d="M 127.5,11.5 C 129.337,11.6395 129.67,12.3061 128.5,13.5C 122.282,14.8804 121.948,14.2137 127.5,11.5 Z"/></g>
<g><path style="opacity:0.623" fill="#0060a9" d="M 132.5,11.5 C 134.176,12.1834 134.843,13.5168 134.5,15.5C 141.252,15.8335 142.919,19.0002 139.5,25C 137.301,26.5834 134.968,26.7501 132.5,25.5C 132.5,20.8333 132.5,16.1667 132.5,11.5 Z M 135.5,17.5 C 136.5,17.5 137.5,17.5 138.5,17.5C 138.662,19.5273 138.495,21.5273 138,23.5C 135.605,24.7982 134.438,23.9649 134.5,21C 134.648,19.7441 134.982,18.5774 135.5,17.5 Z"/></g>
<g><path style="opacity:0.503" fill="#0060a9" d="M 142.5,11.5 C 143.5,11.5 144.5,11.5 145.5,11.5C 145.631,16.6813 145.631,21.6813 145.5,26.5C 144.522,26.0233 143.689,25.3567 143,24.5C 142.501,20.1794 142.334,15.8461 142.5,11.5 Z"/></g>
<g><path style="opacity:0.376" fill="#0060a9" d="M 148.5,11.5 C 150.465,11.9483 150.798,12.9483 149.5,14.5C 148.614,13.675 148.281,12.675 148.5,11.5 Z"/></g>
<g><path style="opacity:0.503" fill="#0060a9" d="M 188.5,24.5 C 188.5,25.1667 188.5,25.8333 188.5,26.5C 186.983,26.4894 185.816,25.8228 185,24.5C 184.501,20.1794 184.334,15.8461 184.5,11.5C 185.5,11.5 186.5,11.5 187.5,11.5C 187.182,16.0323 187.515,20.3656 188.5,24.5 Z"/></g>
<g><path style="opacity:0.573" fill="#0060a9" d="M 58.5,15.5 C 63.2936,14.6269 65.627,16.6269 65.5,21.5C 63.1432,21.3367 60.8098,21.5034 58.5,22C 59.7439,24.3034 61.4106,24.8034 63.5,23.5C 64.3081,23.8076 64.9747,24.3076 65.5,25C 60.3095,27.7382 57.3095,26.2382 56.5,20.5C 56.4365,18.4861 57.1032,16.8194 58.5,15.5 Z M 59.5,17.5 C 60.675,17.281 61.675,17.6143 62.5,18.5C 61.277,19.6139 59.9437,19.7805 58.5,19C 59.056,18.6174 59.3893,18.1174 59.5,17.5 Z"/></g>
<g><path style="opacity:0.628" fill="#0060a9" d="M 66.5,15.5 C 68.604,15.2011 70.604,15.5344 72.5,16.5C 71.3717,17.2621 70.2051,17.9288 69,18.5C 68.8142,20.9005 68.3142,23.2338 67.5,25.5C 66.513,22.2317 66.1796,18.8984 66.5,15.5 Z"/></g>
<g><path style="opacity:0.577" fill="#0060a9" d="M 74.5,15.5 C 81.6619,15.6128 81.9952,16.6128 75.5,18.5C 74.3904,20.4959 74.7237,22.3292 76.5,24C 77.9506,23.7374 79.2839,23.9041 80.5,24.5C 77.6123,27.2625 75.1123,26.9291 73,23.5C 72.2815,20.5929 72.7815,17.9262 74.5,15.5 Z"/></g>
<g><path style="opacity:0.628" fill="#0060a9" d="M 82.5,15.5 C 84.7925,15.2436 86.9592,15.5769 89,16.5C 89.498,19.4816 89.6646,22.4816 89.5,25.5C 86.8599,27.0078 84.5266,26.6744 82.5,24.5C 81.6744,23.549 81.5078,22.549 82,21.5C 83.5998,20.1341 85.4332,19.1341 87.5,18.5C 85.3449,17.9986 83.6782,16.9986 82.5,15.5 Z M 84.5,21.5 C 87.9571,21.6672 88.2904,22.6672 85.5,24.5C 84.6143,23.675 84.281,22.675 84.5,21.5 Z"/></g>
<g><path style="opacity:0.585" fill="#0060a9" d="M 103.5,15.5 C 109.997,15.1799 112.164,18.1799 110,24.5C 105.797,27.1579 102.963,25.9912 101.5,21C 102.077,19.0999 102.744,17.2666 103.5,15.5 Z M 104.5,17.5 C 108.225,17.7796 109.392,19.7796 108,23.5C 107,24.8333 106,24.8333 105,23.5C 104.505,21.5273 104.338,19.5273 104.5,17.5 Z"/></g>
<g><path style="opacity:0.673" fill="#0060a9" d="M 122.5,15.5 C 123.923,18.3829 125.256,21.3829 126.5,24.5C 127.086,24.2907 127.586,23.9574 128,23.5C 128.182,20.7737 128.682,18.1071 129.5,15.5C 130.487,18.7683 130.82,22.1016 130.5,25.5C 127.673,26.9735 125.173,26.6402 123,24.5C 122.502,21.5184 122.335,18.5184 122.5,15.5 Z"/></g>
<g><path style="opacity:0.697" fill="#0060a9" d="M 147.5,15.5 C 148.5,15.5 149.5,15.5 150.5,15.5C 150.132,28.7215 149.132,28.7215 147.5,15.5 Z"/></g>
<g><path style="opacity:0.577" fill="#0060a9" d="M 154.5,15.5 C 162.196,15.7706 162.363,16.7706 155,18.5C 154.023,21.259 154.856,23.259 157.5,24.5C 158.609,23.4104 159.609,23.4104 160.5,24.5C 158.044,27.0801 155.544,27.0801 153,24.5C 152.068,21.1769 152.568,18.1769 154.5,15.5 Z"/></g>
<g><path style="opacity:0.564" fill="#0060a9" d="M 163.5,15.5 C 169.997,15.1799 172.164,18.1799 170,24.5C 167.034,27.0308 164.367,26.6975 162,23.5C 161.282,20.5929 161.782,17.9262 163.5,15.5 Z M 164.5,17.5 C 168.996,18.4608 169.663,20.7941 166.5,24.5C 163.757,22.6991 163.091,20.3658 164.5,17.5 Z"/></g>
<g><path style="opacity:0.577" fill="#0060a9" d="M 177.5,15.5 C 185.196,15.7706 185.363,16.7706 178,18.5C 177.023,21.259 177.856,23.259 180.5,24.5C 181.609,23.4104 182.609,23.4104 183.5,24.5C 181.044,27.0801 178.544,27.0801 176,24.5C 175.068,21.1769 175.568,18.1769 177.5,15.5 Z"/></g>
<g><path style="opacity:0.376" fill="#0060a9" d="M 171.5,22.5 C 172.5,22.5 173.5,22.5 174.5,22.5C 174.5,23.5 174.5,24.5 174.5,25.5C 173.5,25.5 172.5,25.5 171.5,25.5C 171.5,24.5 171.5,23.5 171.5,22.5 Z"/></g>
<g><path style="opacity:0.979" fill="#0060a9" d="M 63.5,32.5 C 63.5,34.1667 63.5,35.8333 63.5,37.5C 55.5,37.5 47.5,37.5 39.5,37.5C 39.5,35.8333 39.5,34.1667 39.5,32.5C 47.5,32.5 55.5,32.5 63.5,32.5 Z"/></g>
<g><path style="opacity:0.985" fill="#c34140" d="M 63.5,32.5 C 75.1667,32.5 86.8333,32.5 98.5,32.5C 98.5,34.1667 98.5,35.8333 98.5,37.5C 86.8333,37.5 75.1667,37.5 63.5,37.5C 63.5,35.8333 63.5,34.1667 63.5,32.5 Z"/></g>
</svg>
